<?xml version="1.0" encoding="UTF-8" standalone="no"?>
<!DOCTYPE svg PUBLIC "-//W3C//DTD SVG 1.1//EN"
 "http://www.w3.org/Graphics/SVG/1.1/DTD/svg11.dtd">
<!-- Generated by graphviz version 2.40.1 (20161225.0304)
 -->
<!-- Title: %0 Pages: 1 -->
<svg width="520pt" height="260pt"
 viewBox="0.00 0.00 519.93 260.00" xmlns="http://www.w3.org/2000/svg" xmlns:xlink="http://www.w3.org/1999/xlink">
<g id="graph0" class="graph" transform="scale(1 1) rotate(0) translate(4 256)">
<title>%0</title>
<polygon fill="#ffffff" stroke="transparent" points="-4,4 -4,-256 515.9288,-256 515.9288,4 -4,4"/>
<!-- full_api.xml -->
<g id="node1" class="node">
<title>full_api.xml</title>
<ellipse fill="none" stroke="#000000" cx="258.03" cy="-234" rx="58.5259" ry="18"/>
<text text-anchor="middle" x="258.03" y="-229.8" font-family="Times,serif" font-size="14.00" fill="#000000">full_api.xml</text>
</g>
<!-- public_api_a.xml -->
<g id="node5" class="node">
<title>public_api_a.xml</title>
<ellipse fill="none" stroke="#000000" cx="258.03" cy="-162" rx="78.2143" ry="18"/>
<text text-anchor="middle" x="258.03" y="-157.8" font-family="Times,serif" font-size="14.00" fill="#000000">public_api_a.xml</text>
</g>
<!-- full_api.xml&#45;&gt;public_api_a.xml -->
<g id="edge8" class="edge">
<title>full_api.xml&#45;&gt;public_api_a.xml</title>
<path fill="none" stroke="#000000" d="M258.03,-215.8314C258.03,-208.131 258.03,-198.9743 258.03,-190.4166"/>
<polygon fill="#000000" stroke="#000000" points="261.5301,-190.4132 258.03,-180.4133 254.5301,-190.4133 261.5301,-190.4132"/>
</g>
<!-- public_api_b.xml -->
<g id="node6" class="node">
<title>public_api_b.xml</title>
<ellipse fill="none" stroke="#000000" cx="433.03" cy="-162" rx="78.7976" ry="18"/>
<text text-anchor="middle" x="433.03" y="-157.8" font-family="Times,serif" font-size="14.00" fill="#000000">public_api_b.xml</text>
</g>
<!-- full_api.xml&#45;&gt;public_api_b.xml -->
<g id="edge7" class="edge">
<title>full_api.xml&#45;&gt;public_api_b.xml</title>
<path fill="none" stroke="#000000" d="M293.4439,-219.4297C319.8247,-208.5759 356.137,-193.636 385.1122,-181.7148"/>
<polygon fill="#000000" stroke="#000000" points="386.7161,-184.8396 394.6323,-177.7979 384.0527,-178.3661 386.7161,-184.8396"/>
</g>
<!-- private_api_a.xml -->
<g id="node7" class="node">
<title>private_api_a.xml</title>
<ellipse fill="none" stroke="#000000" cx="81.03" cy="-162" rx="81.0601" ry="18"/>
<text text-anchor="middle" x="81.03" y="-157.8" font-family="Times,serif" font-size="14.00" fill="#000000">private_api_a.xml</text>
</g>
<!-- full_api.xml&#45;&gt;private_api_a.xml -->
<g id="edge9" class="edge">
<title>full_api.xml&#45;&gt;private_api_a.xml</title>
<path fill="none" stroke="#000000" d="M222.6369,-219.6028C195.8732,-208.7159 158.8269,-193.6462 129.339,-181.6511"/>
<polygon fill="#000000" stroke="#000000" points="130.6349,-178.3998 120.0532,-177.8738 127.9973,-184.8839 130.6349,-178.3998"/>
</g>
<!-- product_base_api.xml -->
<g id="node2" class="node">
<title>product_base_api.xml</title>
<ellipse fill="none" stroke="#000000" cx="282.03" cy="-18" rx="96.6748" ry="18"/>
<text text-anchor="middle" x="282.03" y="-13.8" font-family="Times,serif" font-size="14.00" fill="#000000">product_base_api.xml</text>
</g>
<!-- internal_base_api.xml -->
<g id="node3" class="node">
<title>internal_base_api.xml</title>
<ellipse fill="none" stroke="#000000" cx="105.03" cy="-90" rx="96.669" ry="18"/>
<text text-anchor="middle" x="105.03" y="-85.8" font-family="Times,serif" font-size="14.00" fill="#000000">internal_base_api.xml</text>
</g>
<!-- internal_base_api.xml&#45;&gt;product_base_api.xml -->
<g id="edge2" class="edge">
<title>internal_base_api.xml&#45;&gt;product_base_api.xml</title>
<path fill="none" stroke="#000000" d="M145.6374,-73.4817C171.3837,-63.0087 204.8686,-49.3877 232.2169,-38.263"/>
<polygon fill="#000000" stroke="#000000" points="233.6675,-41.4515 241.6116,-34.4414 231.0298,-34.9674 233.6675,-41.4515"/>
</g>
<!-- common.xml -->
<g id="node4" class="node">
<title>common.xml</title>
<ellipse fill="none" stroke="#000000" cx="105.03" cy="-18" rx="62.0437" ry="18"/>
<text text-anchor="middle" x="105.03" y="-13.8" font-family="Times,serif" font-size="14.00" fill="#000000">common.xml</text>
</g>
<!-- internal_base_api.xml&#45;&gt;common.xml -->
<g id="edge3" class="edge">
<title>internal_base_api.xml&#45;&gt;common.xml</title>
<path fill="none" stroke="#000000" d="M105.03,-71.8314C105.03,-64.131 105.03,-54.9743 105.03,-46.4166"/>
<polygon fill="#000000" stroke="#000000" points="108.5301,-46.4132 105.03,-36.4133 101.5301,-46.4133 108.5301,-46.4132"/>
</g>
<!-- public_api_a.xml&#45;&gt;product_base_api.xml -->
<g id="edge4" class="edge">
<title>public_api_a.xml&#45;&gt;product_base_api.xml</title>
<path fill="none" stroke="#000000" d="M261.0697,-143.7623C265.1812,-119.0928 272.5534,-74.8598 277.3679,-45.9731"/>
<polygon fill="#000000" stroke="#000000" points="280.8234,-46.529 279.0151,-36.0896 273.9187,-45.3781 280.8234,-46.529"/>
</g>
<!-- public_api_a.xml&#45;&gt;common.xml -->
<g id="edge5" class="edge">
<title>public_api_a.xml&#45;&gt;common.xml</title>
<path fill="none" stroke="#000000" d="M252.2711,-143.7249C245.2498,-123.9351 231.6999,-92.4621 211.03,-72 195.3262,-56.454 174.2336,-44.4702 154.9995,-35.7865"/>
<polygon fill="#000000" stroke="#000000" points="156.3066,-32.5386 145.7384,-31.7876 153.5316,-38.9651 156.3066,-32.5386"/>
</g>
<!-- public_api_b.xml&#45;&gt;product_base_api.xml -->
<g id="edge1" class="edge">
<title>public_api_b.xml&#45;&gt;product_base_api.xml</title>
<path fill="none" stroke="#000000" d="M414.5145,-144.3428C387.7976,-118.8645 338.3204,-71.6809 307.9744,-42.7417"/>
<polygon fill="#000000" stroke="#000000" points="310.3494,-40.1701 300.6971,-35.8017 305.5184,-45.2359 310.3494,-40.1701"/>
</g>
<!-- private_api_a.xml&#45;&gt;internal_base_api.xml -->
<g id="edge6" class="edge">
<title>private_api_a.xml&#45;&gt;internal_base_api.xml</title>
<path fill="none" stroke="#000000" d="M87.0863,-143.8314C89.6813,-136.0463 92.7724,-126.7729 95.6518,-118.1347"/>
<polygon fill="#000000" stroke="#000000" points="99.0503,-119.0069 98.8923,-108.4133 92.4095,-116.7933 99.0503,-119.0069"/>
</g>
</g>
</svg>
